HIERARCHY
ROOT root
{
	OFFSET	0	13.1	24.9
	CHANNELS 6  Xposition Yposition Zposition Xrotation Yrotation Zrotation
	JOINT spine_1
	{
		OFFSET	0	9.99999	0
		CHANNELS 3  Xrotation Yrotation Zrotation
		JOINT spine_2
		{
			OFFSET	0	112	-10
			CHANNELS 3  Xrotation Yrotation Zrotation
			JOINT spine_3
			{
				OFFSET	0	206.5	19.3
				CHANNELS 3  Xrotation Yrotation Zrotation
				JOINT spine_4
				{
					OFFSET	0	110.4	14.6
					CHANNELS 3  Xrotation Yrotation Zrotation
					JOINT neck_1
					{
						OFFSET	0	71.8	-50.3
						CHANNELS 3  Xrotation Yrotation Zrotation
						JOINT neck_2
						{
							OFFSET	0	86.2	-25.8
							CHANNELS 3  Xrotation Yrotation Zrotation
							JOINT head_ee
							{
								OFFSET	0	179.8	-8.7
								CHANNELS 3  Xrotation Yrotation Zrotation
								End Site
								{
									OFFSET	1	0	0
								}
							}
						}
					}
					JOINT left_clavicle
					{
						OFFSET	-43.2	22.4	-70.8
						CHANNELS 3  Xrotation Yrotation Zrotation
						JOINT left_shoulder
						{
							OFFSET	-93.9	-5.79999	48.7
							CHANNELS 3  Xrotation Yrotation Zrotation
							JOINT left_elbow
							{
								OFFSET	-291.4	-30.8	15.2
								CHANNELS 3  Xrotation Yrotation Zrotation
								JOINT left_lowarm_twist
								{
									OFFSET	-110.7	-3.89999	13.6
									CHANNELS 3  Xrotation Yrotation Zrotation
									JOINT left_hand
									{
										OFFSET	-110.7	-3.89999	13.6
										CHANNELS 3  Xrotation Yrotation Zrotation
										JOINT left_ee
										{
											OFFSET	-80.8	-5.10001	12.1
											CHANNELS 3  Xrotation Yrotation Zrotation
											End Site
											{
												OFFSET	1	0	0
											}
										}
									}
								}
							}
						}
					}
					JOINT right_clavicle
					{
						OFFSET	43.2	22.4	-70.8
						CHANNELS 3  Xrotation Yrotation Zrotation
						JOINT right_shoulder
						{
							OFFSET	93.9	-5.79999	48.7
							CHANNELS 3  Xrotation Yrotation Zrotation
							JOINT right_elbow
							{
								OFFSET	291.4	-30.8	15.2
								CHANNELS 3  Xrotation Yrotation Zrotation
								JOINT right_lowarm_twist
								{
									OFFSET	110.7	-3.89999	13.6
									CHANNELS 3  Xrotation Yrotation Zrotation
									JOINT right_hand
									{
										OFFSET	110.7	-3.89999	13.6
										CHANNELS 3  Xrotation Yrotation Zrotation
										JOINT right_ee
										{
											OFFSET	80.8	-5.10001	12.1
											CHANNELS 3  Xrotation Yrotation Zrotation
											End Site
											{
												OFFSET	1	0	0
											}
										}
									}
								}
							}
						}
					}
				}
			}
		}
	}
	JOINT left_hip
	{
		OFFSET	-82.8	-127.5	0.300001
		CHANNELS 3  Xrotation Yrotation Zrotation
		JOINT left_knee
		{
			OFFSET	-28.2	-396.7	2.2
			CHANNELS 3  Xrotation Yrotation Zrotation
			JOINT left_ankle
			{
				OFFSET	-11.7	-411.3	35.4
				CHANNELS 3  Xrotation Yrotation Zrotation
				JOINT left_toes
				{
					OFFSET	0	-60	-88.6
					CHANNELS 3  Xrotation Yrotation Zrotation
					JOINT left_foot_ee
					{
						OFFSET	-22.5	-16.5	-42.2
						CHANNELS 3  Xrotation Yrotation Zrotation
						End Site
						{
							OFFSET	1	0	0
						}
					}
				}
			}
		}
	}
	JOINT right_hip
	{
		OFFSET	82.8	-127.5	0.300001
		CHANNELS 3  Xrotation Yrotation Zrotation
		JOINT right_knee
		{
			OFFSET	28.2	-396.7	2.2
			CHANNELS 3  Xrotation Yrotation Zrotation
			JOINT right_ankle
			{
				OFFSET	11.7	-411.3	35.4
				CHANNELS 3  Xrotation Yrotation Zrotation
				JOINT right_toes
				{
					OFFSET	0	-60	-88.6
					CHANNELS 3  Xrotation Yrotation Zrotation
					JOINT right_foot_ee
					{
						OFFSET	22.5	-16.5	-42.2
						CHANNELS 3  Xrotation Yrotation Zrotation
						End Site
						{
							OFFSET	1	0	0
						}
					}
				}
			}
		}
	}
}
MOTION
Frames: 15
Frame Time: 0.02
3450.1 744.133 -367.488 -2.42155 48.9346 5.92204 -1.48 -0.479796 -3.24146 -1.4742 -0.272673 -3.26539 -1.45329 0.502396 -3.23804 -1.46792 -0.0150119 -3.27671 6.1885 17.8034 7.56698 6.87172 23.6254 9.28316 -0.0 0.0 -0.0 8.36615 23.8157 14.3719 -9.05161 -41.8472 63.9115 1.52975 -37.152 0.51413 18.5482 0.27647 -2.34291 1.44215 -5.10232 7.58051 -0.0 0.0 -0.0 -0.452767 20.6959 3.39424 -9.66781 18.5241 -68.3121 0.860218 23.0799 -0.175641 4.39591 -0.134009 0.54537 -0.522881 7.18692 6.59341 0.0 0.0 0.0 -1.62826 11.99 5.98859 -5.50018 0.187064 0.823064 39.0137 1.24018 -4.78209 -15.6989 0.0 0.0 -0.0 0.0 -0.0 22.2252 5.70787 -0.430669 -12.2722 -0.307668 -1.85464 0.552523 -13.7776 0.0811078 39.3562 -0.0 -0.0 0.0 0.0 0.0 
3443.52 744.272 -371.289 -2.73346 50.6797 5.89657 -1.41754 -0.828456 -3.09295 -1.41244 -0.630065 -3.13933 -1.37242 0.120281 -3.19962 -1.3865 -0.386288 -3.17851 5.17007 17.3385 8.1359 5.77975 22.6538 9.99814 -0.0 0.0 -0.0 8.84226 22.9744 15.1926 -7.8968 -42.357 63.0748 1.51536 -36.8917 0.505466 18.5835 0.276268 -2.34742 1.77241 -7.40976 8.85494 -0.0 0.0 -0.0 -0.51375 19.9835 3.44485 -11.3344 21.6747 -67.8834 0.863034 23.1475 -0.176747 4.08791 -0.125988 0.506844 0.0813097 7.70725 2.72323 0.0 0.0 0.0 -1.86402 10.9234 6.1024 -4.33379 0.154017 0.647115 36.6419 -3.63933 -4.61164 -16.2074 0.0 0.0 -0.0 0.0 -0.0 21.7043 9.47476 0.329491 -10.8968 -0.293058 -1.6441 2.79043 -11.9683 0.406326 40.1076 -0.0 -0.0 0.0 0.0 0.0 
3441.18 745.414 -374.721 -4.43767 50.9295 7.85596 -1.17425 -0.857377 -3.15449 -1.16895 -0.655017 -3.20258 -1.12699 0.0967454 -3.26738 -1.14164 -0.420214 -3.24172 5.49923 17.2188 8.35489 6.09429 22.1393 10.2336 -0.0 0.0 -0.0 9.17155 23.0227 15.6757 -5.4064 -42.6055 63.2617 1.58399 -38.1172 0.547257 18.6351 0.275969 -2.354 1.74754 -8.03616 8.41676 -0.0 0.0 -0.0 -0.743202 19.4348 3.87767 -11.1079 19.4997 -68.8469 0.821588 22.1457 -0.160788 4.62142 -0.13975 0.573604 -0.202281 5.6316 3.75385 0.0 0.0 0.0 -2.4538 12.2266 5.70537 -1.03278 0.0411458 0.15315 34.9118 -0.996228 -4.41874 -16.5598 0.0 0.0 -0.0 0.0 -0.0 24.0657 8.3064 -0.918933 -9.93183 -0.279793 -1.49664 0.947556 -13.4418 0.138891 39.9216 -0.0 -0.0 0.0 0.0 0.0 
3435.56 744.967 -377.656 -4.90592 51.337 8.16224 -1.13217 -0.90055 -3.20097 -1.12674 -0.69515 -3.25171 -1.0818 0.0662631 -3.32445 -1.09693 -0.459313 -3.29327 4.82844 16.8611 8.8264 5.37986 21.3221 10.8004 -0.0 0.0 -0.0 9.73928 21.5368 16.7858 -3.1844 -43.0565 62.8464 1.60812 -38.5384 0.562216 18.6416 0.275931 -2.35483 1.76181 -8.32206 8.39121 -0.0 0.0 -0.0 -1.2151 18.9705 4.84374 -12.0057 21.8906 -69.3276 0.844738 22.7071 -0.169619 4.73546 -0.142612 0.587891 0.0645706 6.46849 2.30835 0.0 0.0 0.0 -3.50395 10.6962 6.49848 1.89866 -0.0828295 -0.27956 33.6704 -0.455744 -4.29232 -17.0766 0.0 0.0 -0.0 0.0 -0.0 26.0646 10.1511 -1.133 -8.94073 -0.263584 -1.34542 0.651334 -10.0156 0.0952062 39.6419 -0.0 -0.0 0.0 0.0 0.0 
3418.37 743.273 -385.689 -4.2165 50.8312 7.3823 -1.11274 -0.568954 -3.20179 -1.10711 -0.364172 -3.23146 -1.08171 0.384378 -3.22913 -1.09624 -0.130148 -3.2493 6.83432 16.5007 8.07513 7.37826 20.7143 9.8541 -0.0 0.0 -0.0 10.1289 21.7238 17.3593 -2.19231 -42.8567 63.112 1.74944 -40.9092 0.652552 18.677 0.275721 -2.35935 1.66669 -8.60365 7.6216 -0.0 0.0 -0.0 -1.43533 18.3936 5.25047 -12.6124 20.6482 -71.0159 0.661201 18.1358 -0.105528 5.13695 -0.152458 0.638233 -0.383504 3.54408 4.08276 0.0 0.0 0.0 -5.12491 13.3317 7.35741 -0.0689644 0.00283383 0.0102038 34.1041 1.9054 -4.31991 -17.2482 0.0 0.0 -0.0 0.0 -0.0 28.0932 10.1947 -2.22962 -8.51773 -0.25587 -1.28097 -0.743863 -9.40227 -0.109063 39.3899 -0.0 -0.0 0.0 0.0 0.0 
3410.02 738.217 -394.551 -3.23927 52.5765 6.55697 -1.19696 -0.817419 -3.21073 -1.19144 -0.611567 -3.25617 -1.1512 0.152807 -3.30952 -1.16629 -0.371498 -3.29217 6.81983 16.6783 7.80512 7.38852 21.2684 9.5358 -0.0 0.0 -0.0 10.0841 20.7788 17.4583 -0.4069 -43.5328 62.3272 1.8274 -42.1486 0.704245 18.0571 0.278987 -2.28023 1.93848 -8.53343 9.50712 -0.0 0.0 -0.0 -1.30195 18.414 4.96446 -13.8317 21.0577 -71.3817 0.595448 16.4345 -0.0859892 5.36558 -0.157907 0.66693 -0.28914 3.26814 3.32847 0.0 0.0 0.0 -6.58165 13.8939 7.44153 0.116632 -0.00482039 -0.0172491 34.9127 2.78027 -4.39516 -16.8399 0.0 0.0 -0.0 0.0 -0.0 28.6443 10.2398 -2.54514 -8.4605 -0.25479 -1.27225 -3.04375 -9.6095 -0.448525 38.7315 -0.0 -0.0 0.0 0.0 0.0 
3389.35 731.168 -404.098 -2.14885 52.1257 5.38415 -1.07135 -0.468208 -3.14666 -1.06588 -0.267132 -3.17005 -1.04664 0.463002 -3.14743 -1.06046 -0.0396262 -3.18103 8.216 16.6966 7.53129 8.79635 21.0964 9.17255 -0.0 0.0 -0.0 9.19439 21.4451 15.9573 -1.69179 -43.0104 62.6036 2.50889 -51.1712 1.20143 19.3544 0.271174 -2.44574 1.47127 -8.32342 6.41286 -0.0 0.0 -0.0 -1.69286 15.839 5.48592 -14.9868 23.3465 -71.1612 0.521739 14.4914 -0.0663342 4.87424 -0.146055 0.605284 -0.194286 2.28734 2.27131 0.0 0.0 0.0 -8.30335 10.8489 7.68763 -2.99623 0.111717 0.446201 36.6998 7.3725 -4.56327 -17.3272 0.0 0.0 -0.0 0.0 -0.0 28.2234 10.4441 -3.6872 -5.51632 -0.187497 -0.825504 -7.19333 -5.83056 -1.06923 37.5004 -0.0 -0.0 0.0 0.0 0.0 
3375.47 728.14 -415.007 -3.36078 52.8242 6.39954 -1.22592 -0.505093 -3.02659 -1.22088 -0.311572 -3.05256 -1.19983 0.400979 -3.04212 -1.21274 -0.084265 -3.06725 4.97953 15.2297 7.45341 5.43376 19.6623 9.17838 -0.0 0.0 -0.0 9.34173 21.231 16.2183 -0.552296 -41.565 62.4037 2.83276 -54.5151 1.45966 19.798 0.267643 -2.50229 1.71001 -11.224 6.77763 -0.0 0.0 -0.0 -1.95246 15.0289 5.93782 -15.0582 22.0079 -72.7006 0.489835 13.6394 -0.0585805 5.91061 -0.170435 0.735426 0.071624 3.24593 0.891571 0.0 0.0 0.0 -9.45817 11.3047 7.65151 -1.98552 0.0766453 0.295054 36.6826 7.42346 -4.5618 -16.1931 0.0 0.0 -0.0 0.0 -0.0 29.0205 10.8762 -4.45098 -6.80506 -0.219779 -1.02064 -4.30679 -6.7709 -0.636442 36.8458 -0.0 -0.0 0.0 0.0 0.0 
3370.11 728.94 -426.469 -4.23464 52.996 7.81522 -1.36345 -0.406682 -3.04383 -1.35832 -0.212264 -3.06352 -1.34249 0.507824 -3.02862 -1.35529 0.0233723 -3.07077 5.30266 15.7047 7.63626 5.79029 20.2247 9.38575 -0.0 0.0 -0.0 8.50303 20.3348 15.0417 -0.617262 -42.3809 61.4807 3.37319 -59.0876 1.91224 20.2794 0.263316 -2.56363 1.83443 -11.8456 7.34887 -0.0 0.0 -0.0 -2.03207 14.4646 6.03354 -14.5987 22.1112 -73.6667 0.444807 12.4264 -0.0484256 6.55251 -0.184353 0.816242 0.572231 2.29596 -2.872 0.0 0.0 0.0 -9.56772 10.4498 6.3928 -1.74306 0.0678351 0.258887 36.1795 6.93669 -4.51307 -17.5908 0.0 0.0 -0.0 0.0 -0.0 30.1081 10.9097 -5.56087 -4.4714 -0.158103 -0.667838 -5.98607 -3.52291 -0.890411 35.5916 -0.0 -0.0 0.0 0.0 0.0 
3360.14 726.307 -431.854 -3.9081 53.0586 7.33648 -1.31191 -0.404363 -3.10462 -1.30657 -0.206087 -3.12404 -1.29076 0.525182 -3.0865 -1.30405 0.0313844 -3.13066 5.06875 15.5178 7.83136 5.53712 19.7986 9.61617 -0.0 0.0 -0.0 7.72935 20.6501 13.8111 -0.31273 -42.2999 62.2924 3.8169 -62.1096 2.29894 20.7424 0.258668 -2.62259 1.99248 -14.8484 7.07655 -0.0 0.0 -0.0 -2.42502 14.2483 6.84613 -14.6494 22.111 -73.7033 0.454149 12.6791 -0.050456 7.25976 -0.198638 0.905457 0.699341 1.36289 -4.1137 0.0 0.0 0.0 -10.4637 10.5437 6.62239 -3.2632 0.120535 0.486226 36.0614 6.94891 -4.50186 -18.4934 0.0 0.0 -0.0 0.0 -0.0 30.8118 11.7773 -5.84817 -3.82445 -0.138463 -0.570495 -6.44227 -1.31806 -0.963064 33.729 -0.0 -0.0 0.0 0.0 0.0 
3355.01 724.055 -438.975 -5.16617 52.7558 8.92411 -1.16597 -0.412487 -3.27062 -1.16004 -0.203649 -3.29021 -1.14354 0.557863 -3.24901 -1.15826 0.0380327 -3.29628 5.78354 15.4194 7.47188 6.25519 19.733 9.17066 -0.0 0.0 -0.0 7.72362 18.9811 13.9733 2.10783 -39.2786 63.6283 3.92643 -62.7734 2.39604 21.0623 0.255178 -2.6633 1.36455 -11.782 4.19446 -0.0 0.0 -0.0 -1.84591 13.792 5.54611 -14.898 21.8542 -73.0947 0.342449 9.62814 -0.028841 8.37655 -0.218949 1.04667 0.171714 1.67025 -0.445779 0.0 0.0 0.0 -10.8284 11.8154 6.10384 -1.22163 0.0483698 0.181232 38.0296 10.3368 -4.70177 -18.9312 0.0 0.0 -0.0 0.0 -0.0 31.6781 10.9389 -7.28531 1.72197 0.0747304 0.253659 -13.3713 -5.21627 -2.00508 30.8532 -0.0 -0.0 0.0 0.0 0.0 
3335.2 713.655 -446.096 -3.91924 52.8899 7.36154 -1.19856 -0.527436 -3.19266 -1.19295 -0.323317 -3.21972 -1.1699 0.426466 -3.2077 -1.18424 -0.0852074 -3.23477 3.64236 15.4692 8.4825 4.09166 19.5774 10.4177 -0.0 0.0 -0.0 7.5778 18.6889 13.7711 2.12342 -41.9783 62.304 3.99354 -63.1659 2.45582 22.1832 0.241158 -2.80579 1.77374 -13.5631 6.17561 -0.0 0.0 -0.0 -2.24948 13.2335 6.33098 -15.4969 22.6721 -73.2163 0.327109 9.20442 -0.0263314 7.17993 -0.197081 0.895378 1.10413 1.16815 -6.91876 0.0 0.0 0.0 -12.2135 10.4714 6.86937 -4.15723 0.148703 0.62054 40.0211 7.86814 -4.86584 -19.2995 0.0 0.0 -0.0 0.0 -0.0 32.9918 12.0788 -6.6864 -1.0265 -0.0409035 -0.152217 -10.6473 1.14198 -1.61242 29.946 -0.0 -0.0 0.0 0.0 0.0 
3322.52 707.001 -458.887 -4.47724 52.7359 7.8573 -1.14574 -0.698275 -3.14492 -1.14037 -0.496845 -3.18293 -1.10777 0.245365 -3.21208 -1.12207 -0.264735 -3.21055 2.57545 15.5368 9.11085 3.02083 19.4826 11.1747 -0.0 0.0 -0.0 7.91625 17.5132 14.4255 3.02376 -41.5269 61.0919 3.83151 -62.1998 2.31186 23.1041 0.227555 -2.92263 1.62409 -13.1409 5.35165 -0.0 0.0 -0.0 -2.18816 12.8208 6.1434 -15.6536 22.5427 -72.9708 0.327285 9.20929 -0.0263595 7.3392 -0.200174 0.915488 1.25849 1.49788 -7.82698 0.0 0.0 0.0 -12.6268 10.247 6.17759 -4.07942 0.146335 0.608833 41.0838 8.50844 -4.96045 -19.8547 0.0 0.0 -0.0 0.0 -0.0 34.04 12.3675 -6.94659 0.0541975 0.00223566 0.0080166 -9.6638 3.69646 -1.47437 28.6573 -0.0 -0.0 0.0 0.0 0.0 
3308.65 706.35 -467.405 -4.55537 53.2002 8.47613 -1.10102 -0.70089 -3.40014 -1.09472 -0.483241 -3.43779 -1.06008 0.314193 -3.45732 -1.07668 -0.235432 -3.46356 3.94596 16.3169 7.7982 4.46644 21.5686 9.65966 -0.0 0.0 -0.0 7.93394 16.9379 14.5098 4.13477 -40.7832 62.5596 3.51472 -60.1141 2.03432 23.1882 0.226218 -2.9333 1.39928 -10.2935 5.07602 -0.0 0.0 -0.0 -1.90577 12.3445 5.47858 -15.8715 22.8011 -72.3747 0.246834 6.97136 -0.0150351 7.67654 -0.20654 0.95811 1.31762 0.714962 -8.5464 0.0 0.0 0.0 -13.6212 10.0923 5.39521 -3.92159 0.141482 0.585098 41.0472 9.74907 -4.96534 -19.2736 0.0 0.0 -0.0 0.0 -0.0 33.6634 12.8638 -7.19746 0.398557 0.0166165 0.0589041 -12.9835 7.15154 -2.01956 26.4295 -0.0 -0.0 0.0 0.0 0.0 
3299.3 707.438 -479.747 -4.48607 54.2842 8.20452 -1.14147 -0.562647 -3.21812 -1.13578 -0.35684 -3.24736 -1.11062 0.396805 -3.24273 -1.12527 -0.120021 -3.26468 2.70494 16.2507 8.39826 3.19781 21.3212 10.4123 -0.0 0.0 -0.0 7.95192 15.3481 14.6859 3.87367 -40.6988 61.7985 3.3289 -58.7532 1.87431 23.7881 0.216236 -3.00928 1.33064 -9.99391 4.74065 -0.0 0.0 -0.0 -1.21776 11.3751 3.8981 -15.7983 22.8438 -71.9163 0.187579 5.30888 -0.00869646 8.34505 -0.218414 1.04268 1.14891 -0.330983 -7.83097 0.0 0.0 0.0 -13.8161 9.39284 4.94615 -5.80332 0.195065 0.868897 40.8927 9.59121 -4.95097 -18.6091 0.0 0.0 -0.0 0.0 -0.0 33.6726 13.0425 -7.21308 -0.143153 -0.00586795 -0.0211845 -12.6147 5.42546 -1.94562 26.0221 -0.0 -0.0 0.0 0.0 0.0 
